<svg xmlns="http://www.w3.org/2000/svg" width="1280.001" height="301.153" viewBox="0 0 338.667 79.68" xmlns:v="https://vecta.io/nano"><path d="M90.922-107.186c0 .643.203 1.016.576 1.016.315 0 .576-.169.813-.339l105.552-68.505a10.16 10.16 0 0 1 6.095-1.829h23.196c3.556 0 5.96 2.37 5.96 5.926v44.293c0 5.35-1.185 8.466-5.926 11.31l-28.14 16.932c-.281.195-.613.339-.948.339s-.677-.271-.677-1.253v-51.675c0-.61-.169-1.016-.576-1.016-.297 0-.579.152-.813.339l-77.141 50.118c-1.761 1.185-3.827 1.829-5.926 1.795H61.833c-3.59 0-5.96-2.37-5.96-5.96v-63.832c0-.474-.203-.914-.61-.914-.296 0-.577.155-.813.339L3.555-139.559c-.508.339-.643.576-.643.813 0 .203.102.406.44.779l36.369 36.335c.474.474.813.847.813 1.253 0 .339-.542.61-1.185.61H6.501c-2.574 0-4.572-.373-5.96-1.761l-22.045-22.011c-.169-.202-.412-.339-.677-.339-.239 0-.472.081-.677.203l-36.843 22.147c-2.235 1.355-3.759 1.727-5.96 1.727h-33.897c-3.623.034-5.994-2.37-5.994-5.926v-43.447c0-5.384 1.185-8.466 5.96-11.31l28.31-16.999a1.37 1.37 0 0 1 .745-.237c.44 0 .677.44.677 1.422v58.177c0 .61.135.88.576.88.3 0 .576-.169.847-.339l95.63-57.534c1.829-1.253 4.064-1.862 6.299-1.761h51.472c3.556 0 5.96 2.37 5.96 5.926l-.034 63.765z" fill="#131e29" clip-path="none" transform="translate(105.553 177.723)"/></svg>